# Blender 4.0.0
# www.blender.org
mtllib LightningFXMesh.mtl
o Plane.001
v -1.102387 0.000000 1.102387
v 1.102387 0.000000 1.102387
v -1.102387 0.000000 -1.102387
v 1.102387 0.000000 -1.102387
v -0.319810 -0.066583 0.063340
v 0.260715 -0.067261 0.063800
v -1.084851 12.575307 0.139783
v 0.074331 12.602350 -1.190588
v -1.058556 12.016601 0.102674
v -1.025566 11.458935 0.062246
v -1.006995 10.896541 0.049033
v -1.016055 10.327260 0.070545
v -1.093223 9.764129 0.140410
v -1.306539 9.232767 0.266302
v -1.559802 8.719584 0.353318
v -1.709697 8.190935 0.362255
v -1.391177 7.529889 0.257659
v -0.854012 6.783998 0.115510
v -0.736423 6.157947 0.059317
v -1.193650 5.617583 0.107728
v -1.951830 5.153271 0.169918
v -2.231621 4.630047 0.165477
v -2.087264 3.921173 0.178172
v -1.554222 3.103649 0.140710
v -1.024601 2.363550 0.056129
v -1.336969 1.753331 0.013830
v -1.305190 1.197786 0.010167
v -0.724399 0.730918 0.019027
v -0.383464 0.313711 0.039444
v 0.401624 0.326881 0.033182
v 0.335854 0.720315 0.019261
v -0.239314 1.176698 0.011916
v -0.181468 1.749051 0.010905
v 0.088981 2.465569 0.023864
v -0.181099 3.183100 0.098310
v -0.470971 3.948415 0.136712
v -0.532460 4.634940 0.099186
v -0.166928 5.137141 0.034547
v 0.558190 5.545891 -0.102339
v 0.950376 6.006230 -0.220790
v 0.880945 6.543901 -0.277020
v 0.220909 7.291833 -0.252352
v -0.334173 8.052573 -0.264733
v -0.180194 8.632309 -0.435968
v 0.198096 9.207323 -0.708235
v 0.480897 9.801468 -0.961980
v 0.579149 10.391807 -1.143025
v 0.568125 10.968088 -1.262482
v 0.441441 11.523482 -1.304144
v 0.252775 12.064817 -1.272117
v 0.000000 -0.021320 -0.414214
v -0.000000 1.012987 -1.481660
v 0.080809 -0.021320 -0.406255
v 0.289057 1.012987 -1.453190
v 0.158513 -0.021320 -0.382684
v 0.567007 1.012987 -1.368875
v 0.230125 -0.021320 -0.344406
v 0.823166 1.012987 -1.231955
v 0.292894 -0.021320 -0.292894
v 1.047692 1.012987 -1.047692
v 0.344406 -0.021320 -0.230125
v 1.231955 1.012987 -0.823166
v 0.382684 -0.021320 -0.158513
v 1.368875 1.012987 -0.567007
v 0.406255 -0.021320 -0.080809
v 1.453190 1.012987 -0.289057
v 0.414214 -0.021320 -0.000000
v 1.481660 1.012987 0.000000
v 0.406255 -0.021320 0.080809
v 1.453190 1.012987 0.289057
v 0.382684 -0.021320 0.158513
v 1.368875 1.012987 0.567007
v 0.344406 -0.021320 0.230125
v 1.231955 1.012987 0.823166
v 0.292894 -0.021320 0.292894
v 1.047692 1.012987 1.047692
v 0.230125 -0.021320 0.344406
v 0.823166 1.012987 1.231955
v 0.158513 -0.021320 0.382684
v 0.567007 1.012987 1.368875
v 0.080809 -0.021320 0.406255
v 0.289057 1.012987 1.453190
v 0.000000 -0.021320 0.414214
v -0.000000 1.012987 1.481660
v -0.080809 -0.021320 0.406255
v -0.289057 1.012987 1.453190
v -0.158513 -0.021320 0.382684
v -0.567007 1.012987 1.368875
v -0.230125 -0.021320 0.344406
v -0.823166 1.012987 1.231955
v -0.292894 -0.021320 0.292894
v -1.047692 1.012987 1.047692
v -0.344406 -0.021320 0.230125
v -1.231955 1.012987 0.823166
v -0.382684 -0.021320 0.158513
v -1.368875 1.012987 0.567007
v -0.406255 -0.021320 0.080809
v -1.453190 1.012987 0.289057
v -0.414214 -0.021320 -0.000000
v -1.481660 1.012987 0.000000
v -0.406255 -0.021320 -0.080809
v -1.453190 1.012987 -0.289057
v -0.382684 -0.021320 -0.158513
v -1.368875 1.012987 -0.567007
v -0.344406 -0.021320 -0.230125
v -1.231955 1.012987 -0.823166
v -0.292894 -0.021320 -0.292894
v -1.047692 1.012987 -1.047692
v -0.230125 -0.021320 -0.344406
v -0.823166 1.012987 -1.231955
v -0.158513 -0.021320 -0.382684
v -0.567007 1.012987 -1.368875
v -0.080809 -0.021320 -0.406255
v -0.289057 1.012987 -1.453190
vn -0.0000 1.0000 -0.0000
vn 0.7177 0.0786 0.6919
vn 0.7135 0.0818 0.6958
vn 0.7360 0.0645 0.6739
vn 0.0036 0.0699 0.9976
vn 0.0034 0.0559 0.9984
vn 0.0034 0.0540 0.9985
vn 0.0021 0.0365 0.9993
vn 0.0003 0.0238 0.9997
vn -0.0002 0.0091 1.0000
vn 0.0002 0.0031 1.0000
vn 0.0102 -0.0290 0.9995
vn 0.0077 -0.0222 0.9997
vn 0.0277 -0.0705 0.9971
vn 0.0269 -0.0689 0.9973
vn 0.0335 -0.0661 0.9972
vn 0.0315 -0.0509 0.9982
vn 0.0305 -0.0005 0.9995
vn 0.0310 0.0139 0.9994
vn 0.0468 0.0301 0.9985
vn 0.0434 0.0326 0.9985
vn 0.0877 0.0494 0.9949
vn 0.0665 0.0301 0.9973
vn 0.1348 0.0461 0.9898
vn 0.1104 0.0549 0.9924
vn 0.1750 0.0362 0.9839
vn 0.1679 0.0377 0.9851
vn 0.2189 0.0550 0.9742
vn 0.2473 0.0848 0.9652
vn 0.2989 0.1271 0.9458
vn 0.3441 0.1531 0.9264
vn 0.4109 0.1007 0.9061
vn 0.4225 0.0814 0.9027
vn 0.4984 -0.0062 0.8669
vn 0.4835 0.0032 0.8753
vn 0.5478 0.0171 0.8364
vn 0.5350 -0.0012 0.8448
vn 0.5769 0.0680 0.8139
vn 0.5701 0.0546 0.8198
vn 0.6044 0.0925 0.7913
vn 0.6005 0.0912 0.7944
vn 0.6366 0.1007 0.7646
vn 0.6358 0.1006 0.7652
vn 0.6738 0.0996 0.7322
vn 0.6767 0.0989 0.7296
vn -0.0000 0.7182 0.6959
vn -0.1358 0.7182 0.6825
vn -0.2663 0.7182 0.6429
vn -0.3866 0.7182 0.5786
vn -0.4921 0.7182 0.4921
vn -0.5786 0.7182 0.3866
vn -0.6429 0.7182 0.2663
vn -0.6825 0.7182 0.1358
vn -0.6959 0.7182 -0.0000
vn -0.6825 0.7182 -0.1358
vn -0.6429 0.7182 -0.2663
vn -0.5786 0.7182 -0.3866
vn -0.4921 0.7182 -0.4921
vn -0.3866 0.7182 -0.5786
vn -0.2663 0.7182 -0.6429
vn -0.1358 0.7182 -0.6825
vn -0.0000 0.7182 -0.6959
vn 0.1358 0.7182 -0.6825
vn 0.2663 0.7182 -0.6429
vn 0.3866 0.7182 -0.5786
vn 0.4921 0.7182 -0.4921
vn 0.5786 0.7182 -0.3866
vn 0.6429 0.7182 -0.2663
vn 0.6825 0.7182 -0.1358
vn 0.6959 0.7182 -0.0000
vn 0.6825 0.7182 0.1358
vn 0.6429 0.7182 0.2663
vn 0.5786 0.7182 0.3866
vn 0.4921 0.7182 0.4921
vn 0.3866 0.7182 0.5786
vn 0.2663 0.7182 0.6429
vn 0.1358 0.7182 0.6825
vt 0.000000 0.000000
vt 1.000000 0.000000
vt 1.000000 1.000000
vt 0.000000 1.000000
vt 0.000000 0.954545
vt 1.000000 0.954545
vt 1.000000 0.045455
vt 0.000000 0.045455
vt 1.000000 0.090909
vt 0.000000 0.090909
vt 1.000000 0.136364
vt 0.000000 0.136364
vt 1.000000 0.181818
vt 0.000000 0.181818
vt 1.000000 0.227273
vt 0.000000 0.227273
vt 1.000000 0.272727
vt 0.000000 0.272727
vt 1.000000 0.318182
vt 0.000000 0.318182
vt 1.000000 0.363636
vt 0.000000 0.363636
vt 1.000000 0.409091
vt 0.000000 0.409091
vt 1.000000 0.454545
vt 0.000000 0.454545
vt 1.000000 0.500000
vt 0.000000 0.500000
vt 1.000000 0.545455
vt 0.000000 0.545454
vt 1.000000 0.590909
vt 0.000000 0.590909
vt 1.000000 0.636364
vt 0.000000 0.636364
vt 1.000000 0.681818
vt 0.000000 0.681818
vt 1.000000 0.727273
vt 0.000000 0.727273
vt 1.000000 0.772727
vt 0.000000 0.772727
vt 1.000000 0.818182
vt 0.000000 0.818182
vt 1.000000 0.863636
vt 0.000000 0.863636
vt 1.000000 0.909091
vt 0.000000 0.909091
vt 1.000000 0.500000
vt 0.968750 0.500000
vt 0.968750 1.000000
vt 0.937500 0.500000
vt 0.937500 1.000000
vt 0.906250 0.500000
vt 0.906250 1.000000
vt 0.875000 0.500000
vt 0.875000 1.000000
vt 0.843750 0.500000
vt 0.843750 1.000000
vt 0.812500 0.500000
vt 0.812500 1.000000
vt 0.781250 0.500000
vt 0.781250 1.000000
vt 0.750000 0.500000
vt 0.750000 1.000000
vt 0.718750 0.500000
vt 0.718750 1.000000
vt 0.687500 0.500000
vt 0.687500 1.000000
vt 0.656250 0.500000
vt 0.656250 1.000000
vt 0.625000 0.500000
vt 0.625000 1.000000
vt 0.593750 0.500000
vt 0.593750 1.000000
vt 0.562500 0.500000
vt 0.562500 1.000000
vt 0.531250 0.500000
vt 0.531250 1.000000
vt 0.500000 0.500000
vt 0.500000 1.000000
vt 0.468750 0.500000
vt 0.468750 1.000000
vt 0.437500 0.500000
vt 0.437500 1.000000
vt 0.406250 0.500000
vt 0.406250 1.000000
vt 0.375000 0.500000
vt 0.375000 1.000000
vt 0.343750 0.500000
vt 0.343750 1.000000
vt 0.312500 0.500000
vt 0.312500 1.000000
vt 0.281250 0.500000
vt 0.281250 1.000000
vt 0.250000 0.500000
vt 0.250000 1.000000
vt 0.218750 0.500000
vt 0.218750 1.000000
vt 0.187500 0.500000
vt 0.187500 1.000000
vt 0.156250 0.500000
vt 0.156250 1.000000
vt 0.125000 0.500000
vt 0.125000 1.000000
vt 0.093750 0.500000
vt 0.093750 1.000000
vt 0.062500 0.500000
vt 0.062500 1.000000
vt 0.031250 0.500000
vt 0.031250 1.000000
vt 0.000000 0.500000
s 1
usemtl Material.003
f 1/1/1 2/2/1 4/3/1 3/4/1
usemtl Material.001
f 9/5/2 50/6/3 8/3/4 7/4/4
f 5/1/5 6/2/5 30/7/6 29/8/7
f 29/8/7 30/7/6 31/9/8 28/10/9
f 28/10/9 31/9/8 32/11/10 27/12/11
f 27/12/11 32/11/10 33/13/12 26/14/13
f 26/14/13 33/13/12 34/15/14 25/16/15
f 25/16/15 34/15/14 35/17/16 24/18/17
f 24/18/17 35/17/16 36/19/18 23/20/19
f 23/20/19 36/19/18 37/21/20 22/22/21
f 22/22/21 37/21/20 38/23/22 21/24/23
f 21/24/23 38/23/22 39/25/24 20/26/25
f 20/26/25 39/25/24 40/27/26 19/28/27
f 19/28/27 40/27/26 41/29/28 18/30/29
f 18/30/29 41/29/28 42/31/30 17/32/31
f 17/32/31 42/31/30 43/33/32 16/34/33
f 16/34/33 43/33/32 44/35/34 15/36/35
f 15/36/35 44/35/34 45/37/36 14/38/37
f 14/38/37 45/37/36 46/39/38 13/40/39
f 13/40/39 46/39/38 47/41/40 12/42/41
f 12/42/41 47/41/40 48/43/42 11/44/43
f 11/44/43 48/43/42 49/45/44 10/46/45
f 10/46/45 49/45/44 50/6/3 9/5/2
usemtl Material.002
f 51/47/46 53/48/47 54/49/47 52/3/46
f 53/48/47 55/50/48 56/51/48 54/49/47
f 55/50/48 57/52/49 58/53/49 56/51/48
f 57/52/49 59/54/50 60/55/50 58/53/49
f 59/54/50 61/56/51 62/57/51 60/55/50
f 61/56/51 63/58/52 64/59/52 62/57/51
f 63/58/52 65/60/53 66/61/53 64/59/52
f 65/60/53 67/62/54 68/63/54 66/61/53
f 67/62/54 69/64/55 70/65/55 68/63/54
f 69/64/55 71/66/56 72/67/56 70/65/55
f 71/66/56 73/68/57 74/69/57 72/67/56
f 73/68/57 75/70/58 76/71/58 74/69/57
f 75/70/58 77/72/59 78/73/59 76/71/58
f 77/72/59 79/74/60 80/75/60 78/73/59
f 79/74/60 81/76/61 82/77/61 80/75/60
f 81/76/61 83/78/62 84/79/62 82/77/61
f 83/78/62 85/80/63 86/81/63 84/79/62
f 85/80/63 87/82/64 88/83/64 86/81/63
f 87/82/64 89/84/65 90/85/65 88/83/64
f 89/84/65 91/86/66 92/87/66 90/85/65
f 91/86/66 93/88/67 94/89/67 92/87/66
f 93/88/67 95/90/68 96/91/68 94/89/67
f 95/90/68 97/92/69 98/93/69 96/91/68
f 97/92/69 99/94/70 100/95/70 98/93/69
f 99/94/70 101/96/71 102/97/71 100/95/70
f 101/96/71 103/98/72 104/99/72 102/97/71
f 103/98/72 105/100/73 106/101/73 104/99/72
f 105/100/73 107/102/74 108/103/74 106/101/73
f 107/102/74 109/104/75 110/105/75 108/103/74
f 109/104/75 111/106/76 112/107/76 110/105/75
f 111/106/76 113/108/77 114/109/77 112/107/76
f 113/108/77 51/110/46 52/4/46 114/109/77
